<svg id="Mahoor" xmlns="http://www.w3.org/2000/svg" xmlns:xlink="http://www.w3.org/1999/xlink" viewBox="0 0 350.853 353.724"><defs><style>.cls-1{fill:none;}.cls-2{clip-path:url(#clip-path);}.cls-3{fill:#53020c;}.cls-4{fill:url(#linear-gradient);}.cls-5{fill:url(#linear-gradient-2);}.cls-6{fill:#ff0031;}.cls-7{fill:url(#linear-gradient-3);}.cls-8{fill:url(#linear-gradient-4);}.cls-9{fill:url(#linear-gradient-5);}.cls-10{fill:url(#linear-gradient-6);}.cls-11{fill:#950219;}.cls-12{fill:url(#linear-gradient-7);}.cls-13{fill:#fff;}</style><clipPath id="clip-path" transform="translate(-76.067 -38.332)"><circle id="mask_area" data-name="mask area" class="cls-1" cx="250" cy="219.876" r="161.604"/></clipPath><linearGradient id="linear-gradient" x1="155.498" y1="303.975" x2="223.195" y2="350.528" gradientUnits="userSpaceOnUse"><stop offset="0" stop-color="#ff335a"/><stop offset="0.397" stop-color="#ff214a"/><stop offset="0.856" stop-color="#ff0733"/></linearGradient><linearGradient id="linear-gradient-2" x1="252.083" y1="290.335" x2="246.312" y2="333.232" gradientUnits="userSpaceOnUse"><stop offset="0" stop-color="#ff1c41"/><stop offset="0.049" stop-color="#f61a3e"/><stop offset="0.356" stop-color="#c00f2b"/><stop offset="0.622" stop-color="#9a081d"/><stop offset="0.833" stop-color="#820314"/><stop offset="0.964" stop-color="#790111"/></linearGradient><linearGradient id="linear-gradient-3" x1="228.168" y1="319.63" x2="295.812" y2="379.026" gradientUnits="userSpaceOnUse"><stop offset="0" stop-color="#ff335a"/><stop offset="0.464" stop-color="#ff214a"/><stop offset="1" stop-color="#ff0733"/></linearGradient><linearGradient id="linear-gradient-4" x1="322.737" y1="300.047" x2="357.128" y2="337.825" gradientUnits="userSpaceOnUse"><stop offset="0.012" stop-color="#ff1c41"/><stop offset="0.065" stop-color="#f51a3e"/><stop offset="0.378" stop-color="#c00f2a"/><stop offset="0.649" stop-color="#99081d"/><stop offset="0.866" stop-color="#820314"/><stop offset="1" stop-color="#790111"/></linearGradient><linearGradient id="linear-gradient-5" x1="111.972" y1="186.361" x2="251.655" y2="186.361" gradientUnits="userSpaceOnUse"><stop offset="0" stop-color="#950219"/><stop offset="0.004" stop-color="#960219"/><stop offset="0.212" stop-color="#c30123"/><stop offset="0.398" stop-color="#e4012b"/><stop offset="0.552" stop-color="#f8002f"/><stop offset="0.657" stop-color="#ff0031"/></linearGradient><linearGradient id="linear-gradient-6" x1="72.104" y1="310.851" x2="207.561" y2="59.976" xlink:href="#linear-gradient-5"/><linearGradient id="linear-gradient-7" x1="411.727" y1="323.75" x2="283.135" y2="45.605" xlink:href="#linear-gradient-5"/></defs><g id="Logo"><g class="cls-2"><circle id="Sun" cx="175.423" cy="268.441" r="67.589"/><g id="Hill"><path id="h1" class="cls-3" d="M110.071,300.772s22.258-2.272,35.632,14.169-34.423,3.537-34.423,3.537Z" transform="translate(-76.067 -38.332)"/><path id="h2" class="cls-4" d="M235.84,314.367c0-13.21-21.7-23.6-21.7-23.6-9.6,0-65.189,23.476-76.358,27.055s-15.315,1.32-15.315,1.32l-5.968,1.095,44.623,41.891,73.919-26.169-.876-2.783S235.84,327.577,235.84,314.367Z" transform="translate(-76.067 -38.332)"/><g id="h3"><path class="cls-5" d="M234.287,333.141c.023,0,1.678-5.717,1.678-18.775,0-12.03-18.072-21.823-21.284-23.468,9.934.172,23.707,5.075,43.984,13.433,21.655,8.929,24.864,9.952,24.895,9.961l2.141,3.6-50.576,17.9Z" transform="translate(-76.067 -38.332)"/><path class="cls-6" d="M215.235,291.038c9.873.34,23.5,5.211,43.382,13.409,19.96,8.23,24.178,9.721,24.813,9.934l2.084,3.448-50.309,17.81-.776-2.466c.195-.716,1.661-6.52,1.661-18.806,0-11.747-16.55-21.1-20.855-23.329m-1.092-.269s21.7,10.388,21.7,23.6-1.672,18.811-1.672,18.811l.876,2.783,50.843-18-2.291-3.789s-2.983-.928-24.883-9.957-34.964-13.447-44.57-13.447Z" transform="translate(-76.067 -38.332)"/></g><path id="h4" class="cls-7" d="M336.785,356.825c6.59-6.708,10.756-16.533,10.924-30.342s-24.724-26.461-24.724-26.461c-6.643,0-43.261,16.4-81.468,30.5s-87.352,27.128-87.352,27.128,17.67,35.868,93.7,34.358c35.485-.7,66.908-13.641,90.564-28.156C335.54,362.58,333.284,360.387,336.785,356.825Z" transform="translate(-76.067 -38.332)"/><g id="h5"><path class="cls-8" d="M338.414,363.713c-1.927-.862-3.018-1.9-3.242-3.068-.213-1.111.36-2.367,1.7-3.733,7.115-7.241,10.8-17.478,10.96-30.427.154-12.676-20.9-24.492-24.326-26.329,13.638.478,53.535,18.95,53.941,19.139l.057.026.055-.029a9.68,9.68,0,0,1,3.768-1.081,2.3,2.3,0,0,1,1.926.795c.683.875.741,2.473.172,4.752C382.191,328.7,365.188,347.272,338.414,363.713Z" transform="translate(-76.067 -38.332)"/><path class="cls-6" d="M324.067,300.31c14.108.939,52.928,18.912,53.329,19.1l.114.053.11-.059a9.548,9.548,0,0,1,3.709-1.066,2.185,2.185,0,0,1,1.827.746c.659.844.709,2.407.149,4.646-1.23,4.921-18.189,23.431-44.9,39.843-1.85-.838-2.9-1.83-3.111-2.95-.2-1.068.357-2.286,1.669-3.621,7.138-7.265,10.838-17.532,11-30.514.151-12.408-19.225-23.65-23.892-26.176m-1.082-.288s24.892,12.652,24.724,26.461-4.334,23.634-10.924,30.342c-3.5,3.562-1.245,5.755,1.639,7.029,27.027-16.585,43.915-35.233,45.124-40.066,1.142-4.569-.405-5.7-2.219-5.7a9.752,9.752,0,0,0-3.827,1.095s-41.231-19.159-54.517-19.159Z" transform="translate(-76.067 -38.332)"/></g><path id="h6" class="cls-3" d="M364.379,313.384s5.537-16.605,25.226-12.058c-2.026,8.478-12.1,17.855-12.1,17.855l-5.232,1.067Z" transform="translate(-76.067 -38.332)"/></g><g id="Left-Curtain"><g id="Curtain"><path class="cls-9" d="M250.472,145.456s-13.925,48.085-41.286,82.531c-22.014,27.716-44.423,47.161-77.539,57.89-15.495,5.019-19.675,3.216-19.675,3.216C183.9,236.338,226.409,168.541,234.835,83.313l16.82,23.249v34.556Z" transform="translate(-76.067 -38.332)"/><path class="cls-10" d="M237.145,91.035c-26.544,141.529-84.794,181.9-130.9,203.985,0,0-27.486-20.243-30.135-97.04S182.7,58.272,182.7,58.272l46.235-3.743S239.662,40.353,237.145,91.035Z" transform="translate(-76.067 -38.332)"/></g><g id="Shadow"><g id="sh8"><path class="cls-11" d="M257.053,142.59a236.444,236.444,0,0,1-9.479,25.851c-9.4,22-20.952,43.37-36.259,61.858-21.26,25.8-46.783,46.816-79.386,56.141a82.186,82.186,0,0,1-13.222,2.931,18.2,18.2,0,0,1-6.779-.175l.088-.205a10.777,10.777,0,0,0,3.291.205c5.582-.4,10.967-2.149,16.236-3.945A140.418,140.418,0,0,0,161.5,270.529c16.842-10.907,30.739-25.63,42.914-41.459a206.142,206.142,0,0,0,23.843-39.7,291.249,291.249,0,0,0,17.2-46.478l.8-3.243,10.8,2.944Z" transform="translate(-76.067 -38.332)"/></g><g id="sh7"><path class="cls-11" d="M225.329,52.952a398.8,398.8,0,0,0,10.735,50.413c4.658,16.7,10.7,32.731,16.827,49.021l-9.287,3.428c-12.841-32.633-23.3-66.557-28.168-101.4l9.893-1.46Z" transform="translate(-76.067 -38.332)"/></g><g id="sh6"><path class="cls-11" d="M111.656,290.523c15.848-7.92,30.43-18.112,44.082-29.327,6.716-5.632,13.252-11.148,18.78-17.916,20.5-24.695,32.969-54.509,41.557-85.261a245.269,245.269,0,0,0,7.135-33.679c3.421-23,5.451-46.515,7.208-69.717l16.276.7c-.148,8.731-.851,18.3-1.525,27.01-2.382,25.53-5.706,51.358-13.613,75.9-11.39,34.334-27.9,68.29-54.31,93.711-10.161,9.1-21.5,16.618-33.161,23.56a194.785,194.785,0,0,1-32.23,15.5l-.2-.473Z" transform="translate(-76.067 -38.332)"/><path d="M106.656,294.523c15.848-7.92,30.43-18.112,44.082-29.327,6.716-5.632,13.252-11.148,18.78-17.916,20.5-24.695,32.969-54.509,41.557-85.261a245.269,245.269,0,0,0,7.135-33.679c3.421-23,5.451-46.515,7.208-69.717l16.276.7c-.148,8.731-.851,18.3-1.525,27.01-2.382,25.53-5.706,51.358-13.613,75.9-11.39,34.334-27.9,68.29-54.31,93.711-10.161,9.1-21.5,16.618-33.161,23.56a194.785,194.785,0,0,1-32.23,15.5l-.2-.473Z" transform="translate(-76.067 -38.332)"/></g><g id="sh5"><path class="cls-11" d="M218.69,59.893c-1.389,36.2-5.543,72.517-16.321,107.163A318.494,318.494,0,0,1,176.8,224.8c-13.729,23.458-33.357,42.736-54.868,59-9.257,6.373-21.707,13.889-33.208,9.769,13.767,4.046,28.979-8.573,38.5-17.335,17.2-15.829,32.825-33.895,43.328-54.822,11.375-23.6,20.374-48.587,25.03-74.356A445.981,445.981,0,0,0,201.3,59.893Z" transform="translate(-76.067 -38.332)"/><path d="M213.69,63.893c-1.389,36.2-5.543,72.517-16.321,107.163A318.494,318.494,0,0,1,171.8,228.8c-13.729,23.458-33.357,42.736-54.868,59-9.257,6.373-21.707,13.889-33.208,9.769,13.767,4.046,28.979-8.573,38.5-17.335,17.2-15.829,32.825-33.895,43.328-54.822,11.375-23.6,20.374-48.587,25.03-74.356A445.981,445.981,0,0,0,196.3,63.893Z" transform="translate(-76.067 -38.332)"/></g><g id="sh4"><path class="cls-11" d="M189.493,66.666a315.8,315.8,0,0,1-2.18,61.814c-3.836,30.563-12.66,60.52-27.183,87.736-11.717,22.522-25.811,44.3-44.752,61.418-3.764,3.41-7.759,6.536-11.759,9.63a159.78,159.78,0,0,0,21.139-21.6c12.638-15.672,22.442-33.4,30.68-51.7a241.413,241.413,0,0,0,18.2-56.9,320.208,320.208,0,0,0,3.979-81.769c-.166-1.725-.473-5.5-.725-7.232l12.6-1.392Z" transform="translate(-76.067 -38.332)"/><path d="M184.493,70.666a315.8,315.8,0,0,1-2.18,61.814c-3.836,30.563-12.66,60.52-27.183,87.736-11.717,22.522-25.811,44.3-44.752,61.418-3.764,3.41-7.759,6.536-11.759,9.63a159.78,159.78,0,0,0,21.139-21.6c12.638-15.672,22.442-33.4,30.68-51.7a241.413,241.413,0,0,0,18.2-56.9,320.208,320.208,0,0,0,3.979-81.769c-.166-1.725-.473-5.5-.725-7.232l12.6-1.392Z" transform="translate(-76.067 -38.332)"/></g><g id="sh3"><path class="cls-11" d="M162.709,84.746c3.828,44.879-4.489,90.189-21.416,131.69-6.522,16.552-14.723,32.59-25.545,46.755a134.553,134.553,0,0,1-18.136,19.448l-.758-.824a132.621,132.621,0,0,0,16.763-20.161c14.738-21.759,23.283-47.011,29.5-72.352a267.424,267.424,0,0,0,7.476-77.249c-.471-8.594-1.346-17.153-2.57-25.661l14.684-1.646Z" transform="translate(-76.067 -38.332)"/><path d="M157.709,88.746c3.828,44.879-4.489,90.189-21.416,131.69-6.522,16.552-14.723,32.59-25.545,46.755a134.553,134.553,0,0,1-18.136,19.448l-.758-.824a132.621,132.621,0,0,0,16.763-20.161c14.738-21.759,23.283-47.011,29.5-72.352a267.424,267.424,0,0,0,7.476-77.249c-.471-8.594-1.346-17.153-2.57-25.661l14.684-1.646Z" transform="translate(-76.067 -38.332)"/></g><g id="sh2"><path class="cls-11" d="M133.619,108.37c3.786,42.8-1.665,86.587-17.671,126.476-4.124,9.8-8.195,19.986-15.561,27.873a32.856,32.856,0,0,1-8.44,6.508l-.212-.37c5.939-3.753,10.15-9.544,13.233-15.747,8.713-18.984,13.484-39.769,16.516-60.315a275.818,275.818,0,0,0-1.5-82.658l13.631-1.767Z" transform="translate(-76.067 -38.332)"/><path d="M129.619,112.37c3.786,42.8-1.665,86.587-17.671,126.476-4.124,9.8-8.195,19.986-15.561,27.873a32.856,32.856,0,0,1-8.44,6.508l-.212-.37c5.939-3.753,10.15-9.544,13.233-15.747,8.713-18.984,13.484-39.769,16.516-60.315a275.818,275.818,0,0,0-1.5-82.658l13.631-1.767Z" transform="translate(-76.067 -38.332)"/></g><g id="sh1"><path class="cls-11" d="M110.04,135.324c1.946,10.446,2.177,20.831,1.842,31.1a300.554,300.554,0,0,1-9.129,60.424c-2.283,8.62-4.615,17.322-8.449,25.417a18.917,18.917,0,0,1-2.1,3.45l-1.613-1.3c2.516-3.985,3.818-9.131,5.159-13.728a287.611,287.611,0,0,0,7.762-44.427c1.819-19.565,2.522-40.014-1.926-59.088l8.456-1.845Z" transform="translate(-76.067 -38.332)"/><path d="M107.04,139.324c1.946,10.446,2.177,20.831,1.842,31.1a300.554,300.554,0,0,1-9.129,60.424c-2.283,8.62-4.615,17.322-8.449,25.417a18.917,18.917,0,0,1-2.1,3.45l-1.613-1.3c2.516-3.985,3.818-9.131,5.159-13.728a287.611,287.611,0,0,0,7.762-44.427c1.819-19.565,2.522-40.014-1.926-59.088l8.456-1.845Z" transform="translate(-76.067 -38.332)"/></g></g></g><g id="Right-Curtain"><path id="Curtain-2" data-name="Curtain" class="cls-12" d="M224.852,54.13s18.6,115.215,55.9,161.6c23.076,28.7,42.143,34.969,75.362,53.5,20.422,16.87,24.531,19.555,43.978,30.582,0,0,37.515-64.322,23.826-126.494S338.358,32.387,281.89,38.687,221.284,35.014,224.852,54.13Z" transform="translate(-76.067 -38.332)"/><g id="Shadow-2" data-name="Shadow"><g id="sh5-2"><path class="cls-11" d="M276,57.392c-.215,17.008.273,34.2,2.833,51.017,8.968,50.749,31.112,99.34,63.014,139.875,14.563,17.9,30.988,34.815,50.48,47.394-5.063-2.331-10.08-6-14.84-9.254-4.758-3.389-9.364-7-13.842-10.765C310.366,230.31,274.8,161.785,262.293,93.311A274.529,274.529,0,0,1,259.335,57.8l16.661-.4Z" transform="translate(-76.067 -38.332)"/></g><g id="sh5-2-2" data-name="sh5"><path d="M281.919,58.272c-.9,19.631-.538,39.108,3.074,58.442,9.711,47.084,29.194,92.444,58.451,130.815,13.984,17.947,29.8,34.968,48.717,47.826-9.908-5.307-19.15-12.948-27.817-20.377-47-41.549-76.9-99.537-92.468-159.782a201.738,201.738,0,0,1-4.413-21.77,234.838,234.838,0,0,1-2.21-35.154Z" transform="translate(-76.067 -38.332)"/></g><g id="sh4-2" data-name="sh4"><path class="cls-11" d="M306.39,61.556c-2.341,61.471,13.443,124.259,46.814,176.162,11.2,17.488,24.114,33.96,36.382,50.868l-.642.493c-19.773-24.272-40.835-48.042-56.215-75.615a281.516,281.516,0,0,1-24.843-58.237,329.967,329.967,0,0,1-13.824-86.211c-.041-2.777-.068-5.349.031-8.2l12.3.738Z" transform="translate(-76.067 -38.332)"/><path d="M311.39,66.556c-2.341,61.471,13.443,124.259,46.814,176.162,11.2,17.488,24.114,33.96,36.382,50.868l-.642.493c-19.773-24.272-40.835-48.042-56.215-75.615a281.516,281.516,0,0,1-24.843-58.237,329.967,329.967,0,0,1-13.824-86.211c-.041-2.777-.068-5.349.031-8.2l12.3.738Z" transform="translate(-76.067 -38.332)"/></g><g id="sh3-2" data-name="sh3"><path class="cls-11" d="M398.639,289.233c-16.643-23.477-31.455-48.325-43.1-74.7-7.868-17.56-13.449-36.2-18.488-54.757-7.6-28.187-13.669-56.758-12.74-86.408l12.793.646c-2.562,37.359,7.263,74.9,16.106,111.084,7.078,27.327,18.813,53.721,32.1,78.736q6.709,12.612,14.159,24.85l-.835.549Z" transform="translate(-76.067 -38.332)"/><path d="M403.639,294.233c-16.643-23.477-31.455-48.325-43.1-74.7-7.868-17.56-13.449-36.2-18.488-54.757-7.6-28.187-13.669-56.758-12.74-86.408l12.793.646c-2.562,37.359,7.263,74.9,16.106,111.084,7.078,27.327,18.813,53.721,32.1,78.736q6.709,12.612,14.159,24.85l-.835.549Z" transform="translate(-76.067 -38.332)"/></g><g id="sh2-2" data-name="sh2"><path class="cls-11" d="M372.9,102.9c.383-.771.24-.676.212-.57-1.554,5.958-1.488,12.391-1.751,18.635-.839,36.853,4.561,73.48,14.531,108.992,3.9,14.318,8.148,28.571,12.853,42.687-11.73-27.488-22.43-55.337-30.066-84.354a411.791,411.791,0,0,1-10.776-66.977,154.778,154.778,0,0,1-.443-17.627c.287-3.145.224-5.311,1.877-8.584l13.563,7.8Z" transform="translate(-76.067 -38.332)"/><path d="M377.9,113.9c.383-.771.24-.676.212-.57-1.554,5.958-1.488,12.391-1.751,18.635-.839,36.853,4.561,73.48,14.531,108.992,3.9,14.318,8.148,28.571,12.853,42.687-11.73-27.488-22.43-55.337-30.066-84.354a411.791,411.791,0,0,1-10.776-66.977,154.778,154.778,0,0,1-.443-17.627c.287-3.145.224-5.311,1.877-8.584l13.563,7.8Z" transform="translate(-76.067 -38.332)"/></g><g id="sh1-2" data-name="sh1"><path class="cls-11" d="M394.151,136c3.815.379,4.47.567,4.306.711,0,.274-.014,1.1-.019,1.39-.052,4.24-.131,8.774-.308,13-.469,14.717-2.37,29.691-2.239,44.3.415,14.707,2.292,29.574,4.221,44.193.648,4.923,1.4,9.829,2.3,14.708l-.966.259a294.132,294.132,0,0,1-7.609-29,296.407,296.407,0,0,1-5.042-29.752c-1.519-19.535-2.106-38.808-.136-58.238l.091-.935.045-.468c-.145-.166.527-.288,4.36-.22l1,.058Z" transform="translate(-76.067 -38.332)"/><path d="M398.151,147c3.815.379,4.47.567,4.306.711,0,.274-.014,1.1-.019,1.39-.052,4.24-.131,8.774-.308,13-.469,14.717-2.37,29.691-2.239,44.3.415,14.707,2.292,29.574,4.221,44.193.648,4.923,1.4,9.829,2.3,14.708l-.966.259a294.132,294.132,0,0,1-7.609-29,296.407,296.407,0,0,1-5.042-29.752c-1.519-19.535-2.106-38.808-.136-58.238l.091-.935.045-.468c-.145-.166.527-.288,4.36-.22l1,.058Z" transform="translate(-76.067 -38.332)"/></g></g></g><g id="LogoTpye"><path id="R" class="cls-13" d="M284.894,276.035a7.661,7.661,0,0,1-3.475,6.632,1.691,1.691,0,0,1-.606.922h5.293a1.688,1.688,0,0,1-.66-1.317v-13h1.266a3.3,3.3,0,0,1,3.466,3.19,4.728,4.728,0,0,1-.036.872l-.009.077a3.282,3.282,0,0,1-3.077,2.964,5.088,5.088,0,0,1,.819,1.3c.134.268.313.663.522,1.12a41.521,41.521,0,0,0,2.2,4.355c1.861,3.038,4.239,4.873,7.07,5.454a9.407,9.407,0,0,0,6.4-.952c-4.761-.441-7.288-2.722-9.58-6-.259-.373-.5-.741-.741-1.1-1.187-1.784-2.125-3.193-3.748-3.545l.091-.564a3.919,3.919,0,0,0,3.037-.942,3.818,3.818,0,0,0,1.221-2.895c0-3.232-3.391-3.911-6.236-3.911h-7.305a1.681,1.681,0,0,1,.475.573,8.56,8.56,0,0,1,.709.521A7.811,7.811,0,0,1,284.894,276.035Z" transform="translate(-76.067 -38.332)"/><path id="O" class="cls-13" d="M281.635,270.237c-.053-.044-.108-.083-.162-.125-.1-.078-.2-.155-.3-.228s-.228-.159-.344-.233a8.634,8.634,0,0,0-1.419-.73h-.183v-.071a7.957,7.957,0,0,0-4.191-.463,3.644,3.644,0,0,0-2.758,2.037,3.828,3.828,0,0,0-.176,2.5,4.345,4.345,0,0,1,.609-2.6,3.1,3.1,0,0,1,2.3-1.4,3.523,3.523,0,0,1,2.836.89c1.378,1.217,2.168,3.484,2.168,6.219,0,4.386-2.175,7.332-5.411,7.332-3.354,0-5.521-3.155-5.521-8.038a11.446,11.446,0,0,1,1.784-6.7,7.8,7.8,0,0,0-4.439,2.664,8.337,8.337,0,0,1,.024,9.461c1.688,1.975,4.549,3.148,8.13,3.148a11.826,11.826,0,0,0,6.316-1.592c.1-.062.2-.127.291-.192s.193-.136.286-.206a7.106,7.106,0,0,0,2.849-5.875A7.254,7.254,0,0,0,281.635,270.237Z" transform="translate(-76.067 -38.332)"/><path id="O-2" data-name="O" class="cls-13" d="M266.066,271.772c-.058-.085-.118-.166-.179-.247s-.123-.16-.186-.237a7.711,7.711,0,0,0-1.05-1.051,8.449,8.449,0,0,0-6.6-1.85,3.641,3.641,0,0,0-2.757,2.037,3.822,3.822,0,0,0-.177,2.5,4.345,4.345,0,0,1,.609-2.6,3.1,3.1,0,0,1,2.3-1.4,3.523,3.523,0,0,1,2.836.89c1.378,1.217,2.168,3.484,2.168,6.219,0,4.386-2.175,7.332-5.411,7.332-3.354,0-5.521-3.155-5.521-8.038a11.446,11.446,0,0,1,1.784-6.7,8.549,8.549,0,0,0-.92.262v.031h-.09a8.043,8.043,0,0,0-1.517.71,1.124,1.124,0,0,0-.082.382v12.279A11.894,11.894,0,0,0,257.6,283.9c3.619,0,6.453-1.156,8.11-3.146.063-.076.124-.152.184-.23s.125-.165.184-.25a7.76,7.76,0,0,0-.008-8.5Z" transform="translate(-76.067 -38.332)"/><path id="H" class="cls-13" d="M250.7,282.614c0-.095,0-.19,0-.285V270a1.827,1.827,0,0,1,.04-.308,1.752,1.752,0,0,1,.169-.466,1.69,1.69,0,0,1,.449-.53h-5.272a1.707,1.707,0,0,1,.656,1.28v5.9h-6.5V270.4a5.608,5.608,0,0,0-2.1-4.384A5.387,5.387,0,0,0,233.819,265c2.437,1.076,2.463,3.5,2.482,5.305v7.587l1.071,2.446a32.677,32.677,0,0,0,1.6,3.256h1.948a1.719,1.719,0,0,1-.669-1.315V276.41h6.491v5.919a5.98,5.98,0,0,0,2.064,4.874,5.157,5.157,0,0,0,4.53.548C250.821,286.562,250.705,284.578,250.7,282.614Z" transform="translate(-76.067 -38.332)"/><path id="A" class="cls-13" d="M243.732,287.881c-2.253,0-3.894-1.754-5.093-3.72-.058-.1-.115-.19-.171-.286s-.11-.191-.163-.286c-.6-1.071-1.077-2.159-1.456-3.026l-.547-1.25-.286-.653-.287-.655-2.423-5.533c-1.161-2.653-2.7-4.351-4.453-4.912a5.006,5.006,0,0,0-3.6.3c2.329.063,3.488,3.18,4.024,4.621l.041.111-3.876,8.486a20.222,20.222,0,0,0,.634,2.514h.224a1.114,1.114,0,0,1-.172-.2,1.266,1.266,0,0,1-.039-1.23l.961-2.233h5.109l.671,1.646a14.37,14.37,0,0,0,1.2,2.327c.058.089.117.177.176.265a9.486,9.486,0,0,0,4.721,3.808,7.045,7.045,0,0,0,4.9-.089Zm-16.447-8.49,2.45-5.621.241.69c.123.352.268.761.416,1.125l1.552,3.806Z" transform="translate(-76.067 -38.332)"/><path id="M" class="cls-13" d="M225.679,284.162c-.035-.094-.069-.19-.1-.286s-.064-.19-.095-.286c-.172-.535-.316-1.086-.438-1.635-.036-.157-.069-.314-.1-.47-.027-.135-.054-.269-.08-.4l-.014-.076-2.38-12.391-6.6,9.812-4.173-6.819c-.957-1.564-4.366-6.331-9.2-4.241,2.135.357,4.092,3.028,5.408,5.328l.05.088-1.548,9.573a1.9,1.9,0,0,1-.757,1.234h2.209a1.265,1.265,0,0,1-.35-.864l.006-.1,1.229-8.256,5.5,9.427a6.271,6.271,0,0,1,.913-2.114l4.157-6.17,1.151,5.333c.888,4.12,2.882,5.925,4.4,6.714a6.6,6.6,0,0,0,4.844.464C227.6,287.751,226.411,286.125,225.679,284.162Z" transform="translate(-76.067 -38.332)"/></g></g></g></svg>