<svg id="Mahoor" xmlns="http://www.w3.org/2000/svg" viewBox="0 0 319.158 75.058"><g id="LogoTpye"><path id="R" d="M349.31,430.212c0,9-3.976,16.218-10.918,20.837a5.322,5.322,0,0,1-1.9,2.9h16.628a5.315,5.315,0,0,1-2.073-4.141V408.975h3.979c5.038,0,10.595,3.136,10.892,10.021a14.827,14.827,0,0,1-.116,2.74l-.028.244a10.309,10.309,0,0,1-9.666,9.311,16.024,16.024,0,0,1,2.572,4.077c.42.841.985,2.081,1.639,3.518a130.433,130.433,0,0,0,6.924,13.686c5.846,9.544,13.32,15.309,22.214,17.137a29.552,29.552,0,0,0,20.125-2.993c-14.958-1.384-22.9-8.553-30.1-18.849-.816-1.173-1.584-2.328-2.328-3.446-3.732-5.607-6.678-10.035-11.778-11.14l.285-1.772a12.324,12.324,0,0,0,9.545-2.959,12.006,12.006,0,0,0,3.836-9.1c0-10.155-10.655-12.288-19.594-12.288l-22.955,0a5.293,5.293,0,0,1,1.493,1.8,27.268,27.268,0,0,1,2.228,1.637A24.546,24.546,0,0,1,349.31,430.212Z" transform="translate(-90.421 -395.257)"/><path id="O" d="M339.069,411.993c-.166-.137-.339-.26-.508-.392-.314-.245-.629-.488-.95-.716-.358-.254-.718-.5-1.083-.734a27.234,27.234,0,0,0-4.46-2.294H331.5v-.223a24.992,24.992,0,0,0-13.169-1.455c-4.112.811-7.189,3.085-8.665,6.4a12.014,12.014,0,0,0-.554,7.84,13.647,13.647,0,0,1,1.914-8.165,9.734,9.734,0,0,1,7.229-4.382,11.067,11.067,0,0,1,8.913,2.8c4.327,3.824,6.81,10.946,6.81,19.541,0,13.78-6.832,23.039-17,23.039-10.539,0-17.348-9.916-17.348-25.26,0-8.7,2.123-16.587,5.6-21.058a24.512,24.512,0,0,0-13.946,8.37,26.2,26.2,0,0,1,.075,29.728c5.3,6.209,14.294,9.892,25.545,9.892,7.967,0,14.721-1.786,19.845-5,.311-.195.615-.4.914-.6s.606-.426.9-.648a22.322,22.322,0,0,0,8.951-18.458A22.794,22.794,0,0,0,339.069,411.993Z" transform="translate(-90.421 -395.257)"/><path id="O-2" data-name="O" d="M290.151,416.815c-.184-.266-.372-.522-.561-.773s-.389-.5-.587-.745a24.026,24.026,0,0,0-3.3-3.3c-6.718-5.52-15.26-6.9-20.745-5.814-4.112.811-7.189,3.085-8.664,6.4a12.019,12.019,0,0,0-.554,7.844,13.652,13.652,0,0,1,1.913-8.169,9.738,9.738,0,0,1,7.23-4.381,11.065,11.065,0,0,1,8.912,2.8c4.328,3.824,6.81,10.946,6.81,19.541,0,13.78-6.832,23.039-17,23.039-10.538,0-17.347-9.916-17.347-25.26,0-8.7,2.124-16.587,5.606-21.058a27.144,27.144,0,0,0-2.89.823l0,.1h-.283a25.259,25.259,0,0,0-4.768,2.23,3.559,3.559,0,0,0-.257,1.2V449.87c5.18,3.233,11.967,5.053,19.872,5.053,11.371,0,20.275-3.633,25.482-9.884.2-.238.391-.478.578-.723s.393-.518.578-.785a24.386,24.386,0,0,0-.024-26.716Z" transform="translate(-90.421 -395.257)"/><path id="H" d="M241.868,450.883c0-.3,0-.6,0-.9V411.257a5.464,5.464,0,0,1,.123-.967,5.377,5.377,0,0,1,.534-1.463,5.288,5.288,0,0,1,1.41-1.666H227.367a5.362,5.362,0,0,1,2.062,4.021v18.541H209V412.514a17.624,17.624,0,0,0-6.606-13.775,16.923,16.923,0,0,0-13.568-3.216c7.656,3.378,7.737,11,7.8,16.668l0,.307v23.531l3.366,7.688a103.492,103.492,0,0,0,5.021,10.229h6.12a5.392,5.392,0,0,1-2.1-4.131V431.389h20.4v18.6c0,6.6,2.424,12.324,6.484,15.316,3.615,2.667,8.4,3.243,14.234,1.723C242.25,463.29,241.885,457.054,241.868,450.883Z" transform="translate(-90.421 -395.257)"/><path id="A" d="M219.975,467.433c-7.08,0-12.236-5.513-16-11.689q-.273-.447-.537-.9t-.514-.9c-1.883-3.364-3.382-6.784-4.574-9.508l-1.719-3.926-.9-2.054-.9-2.055-7.613-17.387c-3.65-8.336-8.488-13.673-13.994-15.433a15.709,15.709,0,0,0-11.3.935c7.318.2,10.959,9.991,12.643,14.519l.129.348-12.18,26.664a63.564,63.564,0,0,0,1.993,7.9h.7a3.526,3.526,0,0,1-.538-.64,3.976,3.976,0,0,1-.124-3.867l3.019-7.014h16.053l2.108,5.172a45.178,45.178,0,0,0,3.769,7.309c.181.283.367.559.553.834,3.956,5.845,9.044,9.993,14.835,11.965a22.137,22.137,0,0,0,15.393-.279ZM168.3,440.757l7.7-17.661.756,2.166c.386,1.107.844,2.392,1.309,3.534l4.876,11.961Z" transform="translate(-90.421 -395.257)"/><path id="M" d="M163.25,455.748q-.166-.445-.323-.9t-.3-.9c-.54-1.68-.991-3.412-1.377-5.138-.11-.493-.214-.985-.315-1.476q-.13-.636-.252-1.268l-.046-.237L153.16,406.9l-20.726,30.831L119.324,416.3c-3.007-4.915-13.721-19.894-28.9-13.326,6.708,1.121,12.857,9.513,16.993,16.741l.157.277-4.864,30.078a5.956,5.956,0,0,1-2.378,3.879h6.94a3.988,3.988,0,0,1-1.1-2.717l.016-.322,3.864-25.942,17.29,29.621a19.764,19.764,0,0,1,2.868-6.642l13.063-19.387,3.617,16.755c2.79,12.948,9.055,18.62,13.819,21.1a20.76,20.76,0,0,0,15.22,1.458C169.284,467.025,165.551,461.917,163.25,455.748Z" transform="translate(-90.421 -395.257)"/></g></svg>