<svg xmlns="http://www.w3.org/2000/svg" viewBox="0 0 77.188 67.783"><defs><style>.cls-1{fill:#fff;}</style></defs><g id="Layer_2" data-name="Layer 2"><g id="Icon"><g id="Toman"><path id="T" class="cls-1" d="M77.016,45.228a12.055,12.055,0,0,1,.172,1.982,8.755,8.755,0,0,1-1.68,5.256q-2.693,3.706-8.768,3.706H58.317V49.106h8.272a5.292,5.292,0,0,0,2.736-.517,1.7,1.7,0,0,0,.819-1.573,3.333,3.333,0,0,0-.086-.711q-.216-1.1-.431-2.24c-.058-.288-.115-.6-.173-.927l-.086-.409-.064-.41q-.324-1.766-.5-2.52l6.742-2.046Q76.2,40.789,77.016,45.228ZM63.552,34.5l-4.223-4.266,4.158-4.309L67.8,30.234Zm9.026-.022-4.223-4.265,4.18-4.309,4.309,4.309Z"/><path id="O" class="cls-1" d="M54.655,39.024a11.991,11.991,0,0,1,2.607,7.884v2.22H59.4v7.044H57.2a10.938,10.938,0,0,1-6.55,9.586,19.914,19.914,0,0,1-5.493,1.616,32.951,32.951,0,0,1-5.364.409V60.717q5.385,0,8.1-1.507,2.2-1.208,2.2-3.038H47.071A10.4,10.4,0,0,1,40.544,54.1a8.553,8.553,0,0,1-3.232-7.2,12.927,12.927,0,0,1,2.155-7.562,8.646,8.646,0,0,1,7.6-3.791A9.273,9.273,0,0,1,54.655,39.024Zm-4.461,10.1v-2.22a5.262,5.262,0,0,0-.84-3.145,2.684,2.684,0,0,0-2.283-1.142,2.765,2.765,0,0,0-2.327,1.142,4.421,4.421,0,0,0-.8,2.736,3.916,3.916,0,0,0,.022.409A2.03,2.03,0,0,0,45,48.632a3.931,3.931,0,0,0,2.068.5Z"/><path id="M" class="cls-1" d="M32.552,40.855a12.7,12.7,0,0,1,1.529,3.662,13.866,13.866,0,0,1,.431,3.318q0,5.235-2.628,7.841a6.775,6.775,0,0,1-2.327,1.552,6.931,6.931,0,0,1-2.176.495c-.144.014-.345.022-.6.022a14.271,14.271,0,0,1-5.73-1.336,21.1,21.1,0,0,1-2.219-1.1l-.475-.258-.43-.237c-.33-.2-.568-.337-.711-.41q-1.767,1.767-5.881,1.767H10.169V49.106h.883q2.175,0,2.865-.905a18.555,18.555,0,0,0,1.206-3.232c.043-.129.086-.251.13-.366a3.113,3.113,0,0,1,.172-.474,10.281,10.281,0,0,1,.495-1.163,12.976,12.976,0,0,1,1.724-2.779,8.994,8.994,0,0,1,7.281-3.512A8.473,8.473,0,0,1,32.552,40.855Zm-4.869,9.134a4.928,4.928,0,0,0,.28-1.68c0-.158-.008-.316-.022-.474a5.437,5.437,0,0,0-.969-2.866,2.517,2.517,0,0,0-2.047-1.228,3.023,3.023,0,0,0-2.628,1.9,8.474,8.474,0,0,0-.668,1.595q-.107.3-.236.732l-.087.323-.086.281a10.24,10.24,0,0,0,3.188,1.788,8.2,8.2,0,0,0,2.542.56Q27.339,50.916,27.683,49.989Z"/><path id="A" class="cls-1" d="M1.521,28.15A15.546,15.546,0,0,1,.052,25.107H0V46.822A10.48,10.48,0,0,0,.84,51.11a7.994,7.994,0,0,0,4.222,4.222,10.48,10.48,0,0,0,4.288.84h1.938V49.106H9.35a2.58,2.58,0,0,1-1.81-.474,2.547,2.547,0,0,1-.5-1.81V33.168A14.473,14.473,0,0,1,1.521,28.15Z"/><path id="N" class="cls-1" d="M32.577,19.647q0,5.687-2.8,8.94a11.114,11.114,0,0,1-4.588,3.08,18.391,18.391,0,0,1-6.355.992H15.58A15.9,15.9,0,0,1,8.9,31.3a12.092,12.092,0,0,1-5.277-4.5,14.043,14.043,0,0,1-2.047-7.6c0-.359.007-.717.022-1.077A30.767,30.767,0,0,1,4.679,6.979L11.1,9.931a23.828,23.828,0,0,0-2.456,8.552c-.014.245-.022.489-.022.733a6.7,6.7,0,0,0,.97,3.77,5.214,5.214,0,0,0,2.93,2.154,8,8,0,0,0,1.637.366,11.541,11.541,0,0,0,1.422.087h3.253q4.029,0,5.472-1.487,1.227-1.271,1.227-4.459V6.226h7.045ZM13.619,4.524,18.1,0l4.566,4.567L18.122,9.091Z"/></g></g></g></svg>