<svg id="visual" viewBox="0 0 960 540" width="960" height="540" xmlns="http://www.w3.org/2000/svg" xmlns:xlink="http://www.w3.org/1999/xlink" version="1.1"><rect x="0" y="0" width="960" height="540" fill="#ff3d3d"></rect><defs><linearGradient id="grad1_0" x1="43.8%" y1="100%" x2="100%" y2="0%"><stop offset="14.444444444444446%" stop-color="#ff3d3d" stop-opacity="1"></stop><stop offset="85.55555555555554%" stop-color="#ff3d3d" stop-opacity="1"></stop></linearGradient></defs><defs><linearGradient id="grad2_0" x1="0%" y1="100%" x2="56.3%" y2="0%"><stop offset="14.444444444444446%" stop-color="#ff3d3d" stop-opacity="1"></stop><stop offset="85.55555555555554%" stop-color="#ff3d3d" stop-opacity="1"></stop></linearGradient></defs><g transform="translate(960, 540)"><path d="M-540 0C-435.9 -20.3 -331.8 -40.6 -334.2 -89.6C-336.7 -138.5 -445.7 -216 -467.7 -270C-489.7 -324 -424.6 -354.3 -361.3 -361.3C-298 -368.3 -236.4 -351.9 -190 -329.1C-143.6 -306.2 -112.5 -277 -83.3 -311C-54.2 -345.1 -27.1 -442.6 0 -540L0 0Z" fill="#ffffff"></path></g><g transform="translate(0, 0)"><path d="M540 0C551.3 55.9 562.5 111.8 521.6 139.8C480.7 167.7 387.5 167.7 367.2 212C346.9 256.3 399.3 344.9 381.1 381.1C363 417.3 274.1 401.1 211.5 366.3C148.9 331.6 112.4 278.4 81.5 304.3C50.6 330.1 25.3 435.1 0 540L0 0Z" fill="#ffffff"></path></g></svg>