<svg id="visual" viewBox="0 0 960 540" width="960" height="540" xmlns="http://www.w3.org/2000/svg" xmlns:xlink="http://www.w3.org/1999/xlink" version="1.1"><rect x="0" y="0" width="960" height="540" fill="#ffffff"></rect><defs><linearGradient id="grad1_0" x1="43.8%" y1="100%" x2="100%" y2="0%"><stop offset="14.444444444444446%" stop-color="#ffffff" stop-opacity="1"></stop><stop offset="85.55555555555554%" stop-color="#ffffff" stop-opacity="1"></stop></linearGradient></defs><defs><linearGradient id="grad2_0" x1="0%" y1="100%" x2="56.3%" y2="0%"><stop offset="14.444444444444446%" stop-color="#ffffff" stop-opacity="1"></stop><stop offset="85.55555555555554%" stop-color="#ffffff" stop-opacity="1"></stop></linearGradient></defs><g transform="translate(960, 540)"><path d="M-540 0C-522.4 -32.5 -504.8 -64.9 -499.2 -99.3C-493.6 -133.7 -500 -170.1 -490.6 -203.2C-481.2 -236.4 -456 -266.3 -422.4 -282.2C-388.7 -298.1 -346.6 -300 -326 -326C-305.3 -351.9 -306.2 -401.9 -288.3 -431.5C-270.5 -461.2 -234 -470.4 -200.9 -485C-167.8 -499.6 -138.3 -519.6 -105.3 -529.6C-72.4 -539.7 -36.2 -539.8 0 -540L0 0Z" fill="#ff4444"></path></g><g transform="translate(0, 0)"><path d="M540 0C541.5 37.3 543 74.5 527.7 105C512.4 135.4 480.3 159 470.3 194.8C460.2 230.6 472.1 278.5 449 300C425.9 321.5 367.6 316.6 338 338C308.4 359.3 307.3 406.9 283.9 424.9C260.5 442.8 214.7 431.2 180.6 436.1C146.5 441 124.1 462.5 96 482.5C67.8 502.6 33.9 521.3 0 540L0 0Z" fill="#ff4444"></path></g></svg>